<?xml version="1.0" encoding="utf-8"?>
<!-- Generator: Adobe Illustrator 28.0.0, SVG Export Plug-In . SVG Version: 6.00 Build 0)  -->
<svg version="1.1" id="_x31_" xmlns="http://www.w3.org/2000/svg" xmlns:xlink="http://www.w3.org/1999/xlink" x="0px" y="0px"
	 viewBox="0 0 400 400" style="enable-background:new 0 0 400 400;" xml:space="preserve">
<style type="text/css">
	.st0{fill:#004A00;}
</style>
<g>
	<g>
		<path class="st0" d="M162.882797,116.239304c-10.101501,4.765106-17.321793,13.848602-21.370605,18.905197L121.398895,160.375
			H98.357399V45.817909l203.279297-0.004402l0.003906,214.915009h1.558594c9.52829-0.016602,18.544891,3.858398,23.033203,8.94339
			c2.114288,2.309509,5.648499,10.072205,8.395508,16.998993c1.814484,4.52829,3.368195,8.765594,4.232483,11.179718h-37.219788
			v52.380798l42.093811,42.101593h48.598602V7.66651H7.6665v384.666504h134.092285l-43.40139-43.392609V196.261703
			c9.819397,0,22.294899,0,25.499496,0c6.448296-0.129898,16.446297-6.385193,23.239296-14.322708
			c4.865707-5.784683,11.702103-14.358887,14.815903-18.281296l18.456604,45.347198L113.288094,342.43161
			c0,0,22.139107,0,28.232399,0c7.2173-0.141602,15.293503-7.405212,20.756805-18.029297
			c2.612305-5.166016,15.344299-30.021423,27.416504-53.578125c8.637695-16.856384,16.933197-33.027283,20.958496-40.875977
			c0.555695,7.588898,1.594803,21.787186,2.511795,35.020477c0.686508,9.763702,2.467697,16.840912,4.650406,21.59671
			c2.21579,4.686615,4.655197,7.385803,7.746994,7.531311h107.930695c0,0-4.6875-11.885803-6.679688-16.024414
			c-0.685486-1.4776-1.419922-2.833008-2.024414-3.867188c-0.609406-0.982391-0.860382-1.485413-1.339905-2.004913l0,0
			c-3.517487-4.082001-11.443298-7.669891-19.940399-7.722687c-0.085876,0-0.227478-0.003906-0.434601,0.012695
			c-4.349579-0.008789-43.400299-0.003906-51.454987-0.003906c-0.632797-8.802689-3.932693-54.852493-4.366196-60.890594
			l-0.020599-0.248001l-23.861298-58.610397h23.934586c2.74321,4.891098,17.234406,30.729507,19.644501,35.120102
			c2.451202,4.274902,8.120117,6.582092,13.241211,6.638702c1.976593-0.003906,3.895508-0.371109,5.559601-1.270004
			c4.171906-2.315002,8.408203-6.936996,8.452087-12.961502c0-1.645493-0.335907-3.367599-1.0625-5.090302
			c-3.059509-7.209488-12.559509-28.768494-16.321198-37.75679c-4.058594-9.634804-14.203186-16.285706-25.192383-16.302803
			c-9.272507,0-47.377014,0-68.78421,0.002998C173.652802,113.117706,168.710007,113.717308,162.882797,116.239304z"/>
		<path class="st0" d="M176.994598,361.829102c-8.554199-7.694305-15.8965-14.783203-27.643005-14.795898
			c-6.090393-0.003906-29.397499-0.003906-29.397499-0.003906l44.197807,45.303711h44.775787
			C208.927689,392.333008,179.975098,364.511688,176.994598,361.829102z"/>
	</g>
	<path class="st0" d="M197.659698,84.579605c0,16.274902-13.192398,29.4683-29.466797,29.4683
		c-16.274902,0-29.468307-13.193398-29.468307-29.4683c0-16.274399,13.193405-29.468296,29.468307-29.468296
		C184.4673,55.111309,197.659698,68.305206,197.659698,84.579605z"/>
</g>
</svg>
